<?xml version="1.0" standalone="no"?>
<!DOCTYPE svg PUBLIC "-//W3C//DTD SVG 20010904//EN"
 "http://www.w3.org/TR/2001/REC-SVG-20010904/DTD/svg10.dtd">
<svg version="1.0" xmlns="http://www.w3.org/2000/svg"
 width="500.000000pt" height="500.000000pt" viewBox="0 0 500.000000 500.000000"
 preserveAspectRatio="xMidYMid meet">

<g transform="translate(0.000000,500.000000) scale(0.100000,-0.100000)"
fill="#000000" stroke="none">
<path d="M2193 4670 c-44 -10 -143 -51 -143 -59 0 -3 -9 -12 -21 -19 -15 -10
-19 -10 -14 -1 9 14 -2 8 -49 -25 -16 -11 -26 -14 -21 -7 13 22 -118 -57 -209
-124 -26 -21 -45 -31 -41 -24 5 7 -3 5 -16 -4 -13 -10 -24 -23 -24 -30 -1 -6
-7 -11 -14 -9 -16 3 -43 -17 -36 -28 3 -5 0 -12 -6 -16 -8 -4 -9 -3 -5 4 4 7
3 12 -2 12 -13 0 -232 -201 -232 -213 0 -6 19 7 42 28 24 22 11 6 -27 -35 -82
-89 -93 -101 -76 -77 8 9 11 20 8 23 -8 9 -135 -143 -192 -231 -132 -204 -103
-191 48 20 65 91 121 165 123 165 3 0 -11 -23 -32 -51 l-38 -52 32 5 c32 5 32
5 13 -16 -22 -23 -95 -195 -87 -203 3 -3 21 -2 40 1 39 7 71 43 127 141 31 54
109 221 109 232 0 3 -15 1 -32 -2 -31 -7 -32 -7 -17 11 157 190 149 180 124
171 -13 -4 -8 4 15 23 19 17 43 30 53 30 18 0 17 -2 -5 -20 -25 -19 -138 -153
-138 -163 0 -8 42 4 60 17 11 8 10 5 -2 -9 -16 -19 -89 -177 -84 -182 4 -5 81
21 95 31 30 22 181 275 181 302 0 4 -15 4 -32 0 -32 -6 -30 -3 42 69 41 41 71
75 66 75 -5 0 -1 9 9 20 10 11 25 20 34 20 9 0 -13 -29 -54 -71 -54 -54 -64
-69 -45 -64 14 4 32 12 40 18 8 6 5 0 -6 -13 -19 -22 -84 -141 -84 -154 0 -8
61 13 86 29 27 17 52 54 118 175 41 73 43 80 23 74 -36 -11 -4 21 45 45 l41
20 -26 -27 c-26 -28 -57 -83 -57 -101 0 -14 48 4 74 27 18 16 18 16 7 -5 -12
-23 -14 -88 -3 -114 7 -16 10 -16 52 0 43 15 46 19 66 81 19 59 20 67 6 102
-13 32 -19 37 -36 32 -20 -6 -38 -22 -64 -60 -7 -11 6 15 28 57 22 42 38 78
35 81 -3 3 1 8 10 11 14 6 14 4 0 -23 -8 -16 -15 -31 -15 -35 0 -11 19 -4 36
13 17 16 18 16 11 -1 -5 -14 12 -66 28 -85 2 -2 18 3 37 11 32 13 34 17 30 53
-2 22 -14 50 -26 63 l-21 24 24 -16 c19 -12 29 -14 44 -5 19 10 19 12 -14 29
-51 27 -24 23 35 -6 87 -42 140 -52 178 -33 l33 16 -45 21 c-25 11 -69 21
-100 22 l-55 2 60 7 60 7 -75 0 c-41 1 -89 -2 -107 -7z m-43 -34 c0 -2 -7 -7
-16 -10 -8 -3 -12 -2 -9 4 6 10 25 14 25 6z m-510 -369 c0 -2 -12 -14 -27 -28
l-28 -24 24 28 c23 25 31 32 31 24z m-250 -211 c0 -2 -8 -10 -17 -17 -16 -13
-17 -12 -4 4 13 16 21 21 21 13z"/>
<path d="M2242 4597 c-21 -10 -23 -16 -18 -51 4 -28 16 -49 36 -67 58 -49 71
-52 123 -30 l48 21 -25 49 c-23 44 -31 51 -83 68 -45 15 -63 18 -81 10z"/>
<path d="M2398 4418 l-48 -20 0 -72 1 -71 65 -49 c36 -27 71 -49 78 -49 8 0
44 13 81 28 l67 29 -6 40 c-17 104 -20 109 -101 149 -41 20 -79 37 -83 36 -4
0 -28 -10 -54 -21z"/>
<path d="M1893 4360 c-12 -5 -45 -44 -74 -86 -53 -79 -69 -133 -55 -188 l6
-25 53 18 c51 16 53 19 92 99 35 71 40 89 37 137 -4 58 -11 64 -59 45z"/>
<path d="M2014 4261 c-37 -17 -45 -27 -73 -94 -17 -42 -31 -80 -31 -86 0 -21
53 -131 64 -131 6 0 41 12 78 26 l67 25 20 87 20 87 -36 53 c-20 28 -43 52
-52 52 -9 0 -34 -9 -57 -19z"/>
<path d="M2265 4202 c-33 -14 -61 -27 -63 -28 -2 -1 -12 -42 -23 -90 l-19 -88
27 -30 c15 -17 43 -47 61 -67 l34 -37 89 36 89 36 0 55 c0 31 3 72 6 91 6 33
3 37 -58 86 -34 27 -67 53 -73 56 -5 3 -37 -6 -70 -20z"/>
<path d="M1680 4146 c-27 -10 -50 -34 -101 -106 -65 -92 -67 -95 -72 -169 -2
-42 -3 -78 -1 -80 2 -2 31 4 65 14 70 21 85 39 129 146 23 56 30 87 30 140 0
38 -3 69 -7 68 -5 0 -24 -6 -43 -13z"/>
<path d="M1809 4027 l-57 -21 -48 -97 -48 -98 24 -76 c13 -42 27 -78 30 -80 7
-5 141 43 153 54 4 4 23 51 42 103 l34 96 -32 71 c-18 39 -34 70 -37 70 -3 -1
-30 -11 -61 -22z"/>
<path d="M2045 3920 l-70 -28 -32 -93 c-18 -52 -32 -101 -33 -110 0 -20 98
-159 113 -158 7 0 50 14 97 32 l84 32 22 110 22 109 -61 68 c-34 37 -64 68
-67 67 -3 -1 -36 -14 -75 -29z"/>
<path d="M1433 3907 c-40 -10 -48 -18 -112 -116 l-70 -106 -7 -92 -7 -93 54
16 c30 9 57 18 61 20 3 2 31 50 61 107 50 94 55 109 62 190 4 48 5 86 3 86 -1
-1 -22 -7 -45 -12z"/>
<path d="M2405 3849 c-38 -16 -76 -29 -83 -29 -17 0 -26 -28 -46 -139 -15 -78
-15 -96 -4 -106 7 -6 43 -40 80 -74 l67 -63 105 42 105 42 6 66 c3 37 8 87 11
112 l5 45 -77 60 c-43 33 -82 63 -88 66 -6 4 -42 -6 -81 -22z"/>
<path d="M1187 3852 c-32 -7 -139 -171 -184 -282 -24 -58 -43 -108 -43 -112 0
-5 11 -8 24 -8 19 0 34 20 88 113 60 103 145 284 137 291 -2 1 -12 1 -22 -2z"/>
<path d="M1551 3746 l-63 -21 -55 -109 -55 -110 17 -82 c9 -44 20 -86 24 -92
5 -8 25 -6 71 8 36 11 71 24 78 28 7 5 32 59 56 120 l44 111 -27 84 -26 83
-64 -20z"/>
<path d="M1172 3640 c-43 -10 -41 -7 -107 -124 -52 -92 -56 -106 -67 -197 -6
-54 -9 -102 -5 -105 4 -4 26 -3 49 2 41 9 42 10 99 124 53 108 57 121 64 213
4 53 5 97 3 96 -1 -1 -18 -5 -36 -9z"/>
<path d="M941 3533 c-59 -118 -127 -311 -114 -324 10 -10 73 127 137 296 19
50 37 98 41 108 4 10 3 17 -4 17 -6 0 -33 -44 -60 -97z"/>
<path d="M2120 3500 l-94 -36 -30 -121 -30 -121 75 -86 c41 -47 76 -86 79 -86
3 1 52 20 110 43 l105 42 22 120 21 120 -81 81 -82 81 -95 -37z"/>
<path d="M1271 3452 l-55 -17 -52 -116 -52 -115 14 -85 c19 -113 22 -121 42
-115 9 3 42 12 72 20 l55 16 44 120 44 120 -20 92 c-10 50 -23 93 -28 94 -6 2
-35 -5 -64 -14z"/>
<path d="M944 3380 c-37 -15 -103 -187 -120 -310 -18 -140 -19 -132 18 -128
31 3 33 6 74 115 26 71 46 145 53 201 17 138 17 139 -25 122z"/>
<path d="M1495 3281 l-80 -28 -43 -122 -42 -123 46 -98 46 -97 91 29 c51 16
93 31 95 32 1 2 17 58 36 125 l34 121 -50 95 c-27 52 -50 95 -51 94 -1 0 -38
-13 -82 -28z"/>
<path d="M1821 3146 c-46 -17 -88 -38 -92 -46 -5 -8 -22 -66 -38 -128 l-29
-112 51 -68 c29 -38 62 -80 73 -95 l22 -27 103 36 c57 20 107 40 110 45 3 5
16 65 29 133 l23 123 -72 87 c-40 47 -78 85 -85 85 -6 -1 -49 -15 -95 -33z"/>
<path d="M1020 3148 c-25 -6 -48 -15 -52 -22 -4 -6 -24 -60 -44 -119 l-36
-108 12 -99 c7 -54 16 -104 20 -110 8 -13 106 6 116 22 4 6 22 60 40 122 l34
111 -18 107 c-9 60 -19 107 -22 107 -3 -1 -25 -6 -50 -11z"/>
<path d="M797 3133 c-2 -4 -14 -48 -25 -98 -34 -148 -53 -341 -35 -359 15 -15
88 441 73 457 -4 5 -10 5 -13 0z"/>
<path d="M796 2853 c-2 -10 -12 -56 -22 -103 -17 -85 -15 -222 4 -310 7 -32
11 -35 42 -35 l35 0 20 120 c17 105 19 130 8 200 -6 44 -12 95 -12 113 -1 30
-3 32 -35 32 -24 0 -36 -5 -40 -17z"/>
<path d="M1520 2771 c-97 -32 -92 -23 -126 -198 l-18 -92 44 -63 c24 -35 56
-79 72 -99 l28 -36 98 30 99 31 23 133 23 133 -72 95 c-39 52 -75 95 -79 94
-4 -1 -45 -13 -92 -28z"/>
<path d="M963 2618 c-47 -12 -45 -8 -67 -153 l-15 -99 40 -105 c21 -58 43
-109 48 -114 12 -12 131 13 131 27 0 7 7 63 15 126 l15 115 -44 105 c-49 114
-51 115 -123 98z"/>
<path d="M724 2470 c8 -165 28 -317 46 -334 10 -8 11 18 5 119 -10 180 -29
333 -45 348 -10 10 -11 -15 -6 -133z"/>
<path d="M2412 2516 c-62 -24 -115 -46 -117 -48 -4 -4 -35 -232 -35 -258 0
-19 193 -190 214 -190 12 0 222 76 233 84 1 1 9 64 18 140 l15 138 -27 22
c-15 11 -62 51 -104 89 -42 37 -79 67 -80 67 -2 -1 -55 -20 -117 -44z"/>
<path d="M1251 2420 c-35 -11 -68 -23 -72 -27 -4 -4 -14 -62 -22 -128 l-14
-120 70 -105 c38 -58 71 -106 72 -107 2 -4 165 44 171 49 2 3 9 61 15 130 l12
126 -69 101 c-38 55 -76 100 -84 100 -8 0 -44 -9 -79 -19z"/>
<path d="M3480 2338 c-63 -27 -118 -53 -122 -57 -9 -8 -38 -201 -37 -246 0
-26 14 -40 96 -105 53 -41 101 -74 107 -72 49 12 226 98 230 111 3 9 12 59 21
111 9 52 18 104 21 116 5 20 -37 61 -181 175 -19 15 -27 13 -135 -33z"/>
<path d="M793 2210 c6 -109 11 -131 49 -232 l43 -113 39 -3 39 -3 -6 121 c-6
110 -11 132 -49 236 l-43 114 -39 0 -39 0 6 -120z"/>
<path d="M1631 2242 c-62 -20 -86 -33 -92 -48 -4 -12 -10 -73 -14 -135 l-6
-114 93 -98 93 -98 101 32 102 32 7 133 7 133 -88 96 c-49 52 -96 94 -104 94
-8 0 -53 -13 -99 -27z"/>
<path d="M2100 2111 l-105 -38 -7 -49 c-3 -27 -7 -88 -7 -135 l-1 -87 63 -54
c34 -30 81 -69 103 -87 l42 -32 108 38 109 38 6 50 c4 28 9 86 12 130 l6 81
-104 92 c-58 51 -108 92 -112 91 -5 0 -55 -17 -113 -38z"/>
<path d="M1043 2077 l-53 -10 1 -81 c1 -150 18 -196 135 -352 l23 -31 66 15
c64 16 65 16 61 46 -3 17 -8 72 -11 123 l-6 92 -72 106 c-39 58 -75 104 -81
104 -6 -1 -35 -6 -63 -12z"/>
<path d="M786 2028 c24 -114 146 -439 159 -426 6 5 -63 224 -110 356 -36 98
-64 138 -49 70z"/>
<path d="M3150 1914 c-58 -24 -109 -45 -113 -47 -7 -2 -34 -185 -37 -242 0 -6
45 -44 101 -84 l100 -73 72 26 c40 15 92 37 117 49 l45 22 17 100 c9 55 17
110 17 121 1 16 -25 42 -94 95 -52 41 -101 75 -108 76 -6 1 -59 -19 -117 -43z"/>
<path d="M1440 1895 c-25 -8 -64 -18 -87 -25 l-42 -11 5 -97 c9 -149 12 -156
112 -255 l89 -88 84 24 84 24 -4 109 c-2 60 -6 116 -10 125 -3 9 -46 59 -96
111 l-90 96 -45 -13z"/>
<path d="M3658 1841 c-59 -26 -110 -50 -113 -53 -6 -6 -45 -210 -45 -233 0 -6
39 -42 87 -79 l86 -68 56 23 c31 12 79 33 107 45 l51 22 27 106 c14 58 26 113
26 123 0 15 -160 165 -172 162 -1 0 -51 -22 -110 -48z"/>
<path d="M921 1753 c33 -127 66 -201 130 -299 68 -102 69 -104 108 -104 l39 0
-33 113 c-29 96 -43 127 -105 220 -71 105 -73 107 -110 107 l-38 0 9 -37z"/>
<path d="M2323 1602 l-103 -37 1 -75 c0 -41 4 -95 7 -119 7 -43 9 -46 115
-114 l109 -70 51 18 c29 10 76 27 105 37 l52 19 0 112 0 112 -102 74 c-57 41
-110 75 -118 77 -8 1 -61 -14 -117 -34z"/>
<path d="M1230 1548 c-25 -6 -46 -11 -48 -13 -6 -6 57 -203 72 -227 8 -13 52
-56 97 -97 l81 -75 56 12 c30 6 57 14 60 16 2 3 -8 49 -22 104 l-26 99 -96 96
c-52 53 -103 97 -112 96 -9 -1 -37 -6 -62 -11z"/>
<path d="M2833 1507 l-103 -40 0 -113 0 -113 100 -60 c56 -34 105 -61 110 -61
13 0 194 70 202 78 3 4 9 54 13 112 l7 105 -99 68 c-54 37 -105 67 -113 66 -8
-1 -61 -19 -117 -42z"/>
<path d="M1001 1474 c65 -118 221 -344 236 -344 3 0 -1 10 -9 23 -8 12 -32 51
-53 87 -59 98 -186 285 -197 289 -5 2 5 -23 23 -55z"/>
<path d="M3795 1398 c-49 -21 -93 -42 -97 -46 -12 -12 -50 -204 -41 -212 4 -5
37 -31 72 -58 l64 -50 80 34 c43 19 83 37 88 39 4 3 23 50 41 105 l32 100 -64
65 c-35 36 -69 65 -75 64 -5 0 -50 -19 -100 -41z"/>
<path d="M1631 1379 c-35 -10 -66 -20 -68 -23 -5 -5 37 -190 47 -205 3 -4 53
-42 111 -83 l107 -76 73 21 c41 12 76 22 78 24 4 2 -23 141 -35 185 -7 24
-208 178 -231 177 -10 -1 -47 -10 -82 -20z"/>
<path d="M1170 1285 c0 -11 32 -67 74 -134 24 -36 42 -69 42 -73 -1 -12 181
-192 262 -259 39 -33 72 -57 72 -53 0 4 10 -2 23 -13 48 -44 228 -143 260
-143 l31 0 -54 56 c-77 77 -285 214 -327 214 -38 0 -40 -5 -15 -34 9 -11 -25
17 -75 64 -51 46 -91 86 -88 89 3 2 22 -12 43 -32 30 -29 46 -37 74 -37 l37 0
-52 88 c-69 115 -227 272 -275 272 -18 0 -32 -2 -32 -5z m170 -250 c19 -19 32
-35 29 -35 -3 0 -20 16 -39 35 -19 19 -32 35 -29 35 3 0 20 -16 39 -35z m256
-237 l29 -33 -32 29 c-31 28 -38 36 -30 36 2 0 16 -15 33 -32z"/>
<path d="M2098 1248 c-60 -20 -88 -35 -88 -45 0 -9 9 -54 20 -102 l21 -86 112
-63 112 -64 88 28 c48 15 87 33 87 38 0 28 -31 181 -37 186 -21 18 -215 140
-221 139 -4 0 -46 -14 -94 -31z"/>
<path d="M2594 1172 c-54 -19 -101 -37 -103 -38 -4 -4 18 -160 26 -181 3 -8
54 -38 113 -68 l107 -54 92 32 92 32 -5 35 c-3 19 -6 60 -6 91 l0 56 -109 65
-108 65 -99 -35z"/>
<path d="M3065 1104 c-49 -19 -91 -37 -93 -39 -2 -2 -1 -44 3 -93 l7 -90 98
-46 97 -46 86 32 85 32 7 83 c4 45 4 86 1 91 -8 14 -174 112 -188 111 -7 0
-53 -16 -103 -35z"/>
<path d="M3520 1070 c-107 -42 -107 -43 -109 -155 l-1 -60 76 -42 76 -43 78
31 78 30 17 72 c9 40 18 77 20 84 2 6 -29 36 -69 66 l-72 54 -94 -37z"/>
<path d="M1526 1089 c-22 -5 -42 -11 -44 -14 -2 -2 18 -41 44 -86 47 -79 53
-85 159 -154 l111 -72 56 11 55 11 -44 82 c-43 79 -50 86 -151 158 -109 77
-118 80 -186 64z"/>
<path d="M3885 1024 l-80 -35 -22 -81 -21 -81 26 -21 c15 -12 38 -31 51 -42
l25 -22 61 26 c79 33 92 47 120 124 l24 65 -45 51 c-25 29 -49 52 -52 51 -4 0
-43 -16 -87 -35z"/>
<path d="M4175 985 c-69 -32 -71 -33 -108 -109 l-37 -77 20 -39 c11 -22 23
-40 26 -40 2 0 28 12 56 26 56 28 71 44 117 119 28 47 30 53 19 95 -6 25 -14
48 -17 51 -3 4 -37 -8 -76 -26z"/>
<path d="M1953 966 c-40 -11 -73 -25 -73 -31 0 -6 19 -44 43 -85 l42 -75 115
-56 115 -56 64 18 c35 10 65 20 67 22 2 2 -12 38 -31 79 l-35 76 -112 62 c-62
35 -115 64 -118 65 -3 1 -38 -8 -77 -19z"/>
<path d="M2410 873 c-41 -14 -77 -27 -79 -29 -2 -2 11 -37 29 -79 31 -72 34
-75 84 -94 28 -10 81 -30 118 -44 l66 -26 69 21 c37 11 70 22 72 24 2 1 -9 35
-25 74 l-28 72 -108 54 c-59 30 -111 54 -115 53 -5 0 -42 -12 -83 -26z"/>
<path d="M3300 788 c-41 -16 -78 -33 -82 -37 -4 -3 -2 -34 4 -69 l11 -62 81
-27 c94 -31 94 -31 167 -4 l55 21 -2 63 -2 62 -78 42 -79 41 -75 -30z"/>
<path d="M3657 766 l-77 -31 0 -61 0 -61 57 -26 57 -26 49 19 c61 23 60 23 81
85 l17 50 -28 23 c-79 65 -70 63 -156 28z"/>
<path d="M3930 737 c-52 -22 -56 -26 -75 -80 l-20 -57 30 -24 29 -24 44 21
c30 15 52 37 73 70 30 48 30 49 12 80 -10 17 -23 32 -28 33 -6 2 -35 -7 -65
-19z"/>
<path d="M1905 733 c-50 -11 -49 -13 15 -78 58 -58 75 -69 179 -111 94 -37
124 -45 159 -41 24 2 45 7 48 10 3 2 -22 31 -55 62 -45 43 -90 72 -172 111
-106 51 -128 57 -174 47z"/>
<path d="M4103 707 c-46 -24 -108 -99 -119 -142 l-7 -28 41 23 c56 31 120 99
131 138 11 38 9 38 -46 9z"/>
<path d="M2302 642 l-53 -17 58 -57 c56 -54 63 -58 181 -93 123 -36 123 -36
173 -20 l49 17 -46 51 c-41 46 -59 57 -158 94 -123 47 -128 48 -204 25z"/>
<path d="M2750 593 c-25 -8 -51 -17 -59 -19 -9 -3 0 -19 30 -52 24 -26 48 -50
54 -54 6 -4 57 -16 114 -28 98 -20 104 -20 157 -3 30 9 54 19 54 22 -1 3 -18
25 -38 47 -31 35 -52 47 -132 73 -106 35 -117 36 -180 14z"/>
<path d="M3153 576 c-35 -12 -65 -25 -69 -28 -3 -4 14 -26 38 -50 41 -43 47
-45 131 -58 79 -11 93 -10 133 5 24 9 44 20 44 24 0 3 -11 22 -24 41 -22 33
-55 49 -181 86 -5 1 -38 -8 -72 -20z"/>
<path d="M3500 566 c-29 -12 -55 -26 -57 -31 -1 -6 6 -24 16 -41 14 -23 29
-33 57 -37 86 -15 174 0 174 28 0 40 -20 61 -77 81 l-59 22 -54 -22z"/>
<path d="M3760 561 c-40 -15 -45 -20 -43 -46 3 -34 16 -44 66 -46 20 -1 42 -2
47 -3 6 -1 9 1 8 4 -2 3 5 16 15 30 9 13 17 29 17 35 0 9 -51 46 -62 44 -1 0
-23 -8 -48 -18z"/>
<path d="M2025 525 c79 -44 301 -125 340 -125 11 1 -13 18 -55 39 -121 62
-296 131 -332 131 -30 -1 -27 -4 47 -45z"/>
<path d="M3912 547 c-24 -14 -57 -55 -50 -63 7 -6 82 26 90 40 22 33 1 45 -40
23z"/>
<path d="M2331 475 l-44 -10 79 -38 c44 -20 86 -37 94 -37 13 0 13 -2 1 -9
-16 -10 -9 -13 74 -31 137 -31 238 -40 455 -38 212 1 220 10 15 18 l-70 3 83
7 c45 4 85 9 87 12 11 11 -127 58 -227 78 -92 18 -114 19 -150 9 -24 -7 -46
-15 -51 -19 -4 -3 28 -21 70 -38 55 -23 94 -32 132 -32 86 0 56 -7 -62 -14
-74 -5 -107 -3 -102 4 3 5 16 10 28 11 41 1 -125 71 -248 103 -105 28 -125 31
-164 21z m176 -101 c-3 -3 -12 -4 -19 -1 -8 3 -5 6 6 6 11 1 17 -2 13 -5z m46
-11 c-7 -2 -19 -2 -25 0 -7 3 -2 5 12 5 14 0 19 -2 13 -5z m64 -9 c-3 -3 -12
-4 -19 -1 -8 3 -5 6 6 6 11 1 17 -2 13 -5z m56 -11 c-7 -2 -19 -2 -25 0 -7 3
-2 5 12 5 14 0 19 -2 13 -5z"/>
<path d="M3665 447 c-17 -13 -17 -14 6 -20 25 -7 106 10 115 24 9 14 -100 10
-121 -4z"/>
<path d="M3420 432 l-45 -15 35 -13 c19 -7 55 -13 80 -14 l45 -3 -40 -7 c-22
-4 -53 -12 -68 -19 -39 -16 -70 -13 -33 3 16 7 25 15 20 18 -25 15 -96 32
-177 43 -80 11 -97 10 -140 -4 l-50 -17 53 -22 c41 -17 75 -22 154 -24 l101
-1 -112 -6 c-61 -3 -115 -9 -119 -13 -22 -23 325 1 351 23 5 5 22 9 37 9 37 0
118 22 118 32 0 4 8 8 18 9 11 0 6 5 -13 13 -50 22 -164 26 -215 8z"/>
</g>
</svg>
